<svg xmlns="http://www.w3.org/2000/svg" viewBox="0 0 500 500"><g id="freepik--background-simple--inject-16"><path d="M470.25,293.49c-14.72,39.43-44.8,82.11-87.14,94.75-64,19.1-71.6,70.65-186.16,65.87a230.92,230.92,0,0,1-49.54-7.26,194.41,194.41,0,0,1-23.29-7.75C57.2,412,22.28,352.33,19.39,289.91c-3.83-82.11,53.46-121.24,90.69-144.15s82.1-111.7,194.76-107.89a224.22,224.22,0,0,1,50.92,7.44c37.9,10.26,76.44,33,98.83,66.12q2.52,3.75,4.82,7.65C489.38,169.92,490.32,239.73,470.25,293.49Z" style="fill:#FE504F"></path><path d="M470.25,293.49c-14.72,39.43-44.8,82.11-87.14,94.75-64,19.1-71.6,70.65-186.16,65.87a230.92,230.92,0,0,1-49.54-7.26,194.41,194.41,0,0,1-23.29-7.75C57.2,412,22.28,352.33,19.39,289.91c-3.83-82.11,53.46-121.24,90.69-144.15s82.1-111.7,194.76-107.89a224.22,224.22,0,0,1,50.92,7.44c37.9,10.26,76.44,33,98.83,66.12q2.52,3.75,4.82,7.65C489.38,169.92,490.32,239.73,470.25,293.49Z" style="fill:#fff;opacity:0.7000000000000001"></path></g><g id="freepik--Floor--inject-16"><ellipse cx="254.71" cy="460.44" rx="215.52" ry="11.63" style="opacity:0.30000000000000004"></ellipse></g><g id="freepik--Compass--inject-16"><circle cx="173.51" cy="181" r="106.01" transform="translate(-77.17 175.71) rotate(-45)" style="fill:#fff;stroke:#263238;stroke-miterlimit:10"></circle><line x1="173.51" y1="74.99" x2="173.51" y2="177.86" style="fill:none;stroke:#263238;stroke-miterlimit:10"></line><line x1="151.47" y1="77.31" x2="172.86" y2="177.93" style="fill:none;stroke:#263238;stroke-miterlimit:10"></line><line x1="130.39" y1="84.15" x2="172.24" y2="178.13" style="fill:none;stroke:#263238;stroke-miterlimit:10"></line><line x1="111.2" y1="95.24" x2="171.67" y2="178.46" style="fill:none;stroke:#263238;stroke-miterlimit:10"></line><line x1="94.73" y1="110.07" x2="171.18" y2="178.9" style="fill:none;stroke:#263238;stroke-miterlimit:10"></line><line x1="81.7" y1="128" x2="170.79" y2="179.43" style="fill:none;stroke:#263238;stroke-miterlimit:10"></line><line x1="72.69" y1="148.24" x2="170.53" y2="180.03" style="fill:none;stroke:#263238;stroke-miterlimit:10"></line><line x1="68.08" y1="169.92" x2="170.39" y2="180.67" style="fill:none;stroke:#263238;stroke-miterlimit:10"></line><line x1="68.08" y1="192.08" x2="170.39" y2="181.33" style="fill:none;stroke:#263238;stroke-miterlimit:10"></line><line x1="72.69" y1="213.76" x2="170.53" y2="181.97" style="fill:none;stroke:#263238;stroke-miterlimit:10"></line><line x1="81.7" y1="234.01" x2="170.79" y2="182.57" style="fill:none;stroke:#263238;stroke-miterlimit:10"></line><line x1="94.73" y1="251.94" x2="171.18" y2="183.1" style="fill:none;stroke:#263238;stroke-miterlimit:10"></line><line x1="111.2" y1="266.77" x2="171.67" y2="183.54" style="fill:none;stroke:#263238;stroke-miterlimit:10"></line><line x1="130.39" y1="277.85" x2="172.24" y2="183.87" style="fill:none;stroke:#263238;stroke-miterlimit:10"></line><line x1="151.47" y1="284.7" x2="172.86" y2="184.07" style="fill:none;stroke:#263238;stroke-miterlimit:10"></line><line x1="195.55" y1="284.7" x2="174.17" y2="184.07" style="fill:none;stroke:#263238;stroke-miterlimit:10"></line><line x1="216.63" y1="277.85" x2="174.79" y2="183.87" style="fill:none;stroke:#263238;stroke-miterlimit:10"></line><line x1="235.83" y1="266.77" x2="175.36" y2="183.54" style="fill:none;stroke:#263238;stroke-miterlimit:10"></line><line x1="252.3" y1="251.94" x2="175.85" y2="183.1" style="fill:none;stroke:#263238;stroke-miterlimit:10"></line><line x1="265.32" y1="234.01" x2="176.23" y2="182.57" style="fill:none;stroke:#263238;stroke-miterlimit:10"></line><line x1="274.34" y1="213.76" x2="176.5" y2="181.97" style="fill:none;stroke:#263238;stroke-miterlimit:10"></line><line x1="278.94" y1="192.08" x2="176.64" y2="181.33" style="fill:none;stroke:#263238;stroke-miterlimit:10"></line><line x1="278.94" y1="169.92" x2="176.64" y2="180.67" style="fill:none;stroke:#263238;stroke-miterlimit:10"></line><line x1="274.34" y1="148.24" x2="176.5" y2="180.03" style="fill:none;stroke:#263238;stroke-miterlimit:10"></line><line x1="265.32" y1="128" x2="176.23" y2="179.43" style="fill:none;stroke:#263238;stroke-miterlimit:10"></line><line x1="252.3" y1="110.07" x2="175.85" y2="178.9" style="fill:none;stroke:#263238;stroke-miterlimit:10"></line><line x1="235.83" y1="95.24" x2="175.36" y2="178.46" style="fill:none;stroke:#263238;stroke-miterlimit:10"></line><line x1="216.63" y1="84.15" x2="174.79" y2="178.13" style="fill:none;stroke:#263238;stroke-miterlimit:10"></line><line x1="195.55" y1="77.31" x2="174.17" y2="177.93" style="fill:none;stroke:#263238;stroke-miterlimit:10"></line><circle cx="173.51" cy="181" r="97.85" style="fill:#fff;stroke:#263238;stroke-miterlimit:10"></circle><circle cx="173.51" cy="181" r="71.85" style="fill:#263238;stroke:#263238;stroke-miterlimit:10"></circle><circle cx="173.51" cy="181" r="68.04" style="fill:#fff;stroke:#263238;stroke-miterlimit:10"></circle><circle cx="173.51" cy="181" r="58.66" style="fill:#fff;stroke:#263238;stroke-miterlimit:10"></circle><polygon points="173.51 58.08 173.51 181 156.36 154.7 173.51 58.08" style="fill:#263238;stroke:#263238;stroke-miterlimit:10"></polygon><polygon points="173.51 58.08 173.51 181 190.66 154.7 173.51 58.08" style="fill:#fff;stroke:#263238;stroke-miterlimit:10"></polygon><polygon points="173.51 303.93 173.51 181 156.36 207.3 173.51 303.93" style="fill:#fff;stroke:#263238;stroke-miterlimit:10"></polygon><polygon points="173.51 303.93 173.51 181 190.66 207.3 173.51 303.93" style="fill:#263238;stroke:#263238;stroke-miterlimit:10"></polygon><polygon points="296.44 181 173.51 181 199.81 163.85 296.44 181" style="fill:#263238;stroke:#263238;stroke-miterlimit:10"></polygon><polygon points="296.44 181 173.51 181 199.81 198.16 296.44 181" style="fill:#fff;stroke:#263238;stroke-miterlimit:10"></polygon><polygon points="50.59 181 173.51 181 147.21 163.85 50.59 181" style="fill:#fff;stroke:#263238;stroke-miterlimit:10"></polygon><polygon points="50.59 181 173.51 181 147.21 198.16 50.59 181" style="fill:#263238;stroke:#263238;stroke-miterlimit:10"></polygon><line x1="173.51" y1="287.02" x2="173.51" y2="184.14" style="fill:none;stroke:#263238;stroke-miterlimit:10"></line><path d="M168.16,45.63V25.12h2.61l5,11.69V25.12h3.09V45.63h-2.48l-5-12.26V45.63Z" style="fill:#263238"></path><path d="M305.05,191.62V171.11h8.61v2.63H308.8v5.9h3.82v2.61H308.8V189h4.91v2.58Z" style="fill:#263238"></path><path d="M30.42,191.62,27.5,171.11h3.14l1.7,13.29,2.13-13.24H37L39.2,184.4l1.67-13.29H44L41.1,191.62h-3l-2.28-13.75-2.25,13.75Z"></path><path d="M174.07,331.69A6.09,6.09,0,0,1,171,331a4.56,4.56,0,0,1-1.87-2.12,8.93,8.93,0,0,1-.71-3.42l3.21-.63a10.43,10.43,0,0,0,.29,2.1,3.14,3.14,0,0,0,.74,1.41,1.75,1.75,0,0,0,1.3.49,1.46,1.46,0,0,0,1.29-.54,2.34,2.34,0,0,0,.38-1.38,3.79,3.79,0,0,0-.6-2.21,10.2,10.2,0,0,0-1.62-1.72l-2.59-2.28a7.75,7.75,0,0,1-1.73-2.09,5.71,5.71,0,0,1-.65-2.84,4.88,4.88,0,0,1,1.42-3.75,5.48,5.48,0,0,1,3.88-1.32,5.65,5.65,0,0,1,2.4.45,3.8,3.8,0,0,1,1.53,1.22,5.69,5.69,0,0,1,.85,1.79,10.94,10.94,0,0,1,.36,2.11l-3.2.56a10.37,10.37,0,0,0-.21-1.72,2.34,2.34,0,0,0-.58-1.19,1.63,1.63,0,0,0-1.23-.43,1.56,1.56,0,0,0-1.28.54,2.11,2.11,0,0,0-.44,1.36,3.1,3.1,0,0,0,.43,1.71,6.58,6.58,0,0,0,1.24,1.37l2.56,2.26a10.76,10.76,0,0,1,2.16,2.49,6.39,6.39,0,0,1,.9,3.46,5.21,5.21,0,0,1-.65,2.61,4.64,4.64,0,0,1-1.79,1.78A5.45,5.45,0,0,1,174.07,331.69Z" style="fill:#263238"></path></g><g id="freepik--Plant--inject-16"><path d="M55.8,307.9s-3,8.22-9.35,9.35S28.89,306,36,299.68,52.81,303.42,55.8,307.9Z" style="fill:#FE504F;stroke:#263238;stroke-linecap:round;stroke-linejoin:round"></path><path d="M65.52,267.53s-9.35,22.8-5.61,34S86.82,321,93.55,306.41s-8.22-35.14-13.83-39.63S67.39,263.79,65.52,267.53Z" style="fill:#FE504F;stroke:#263238;stroke-linecap:round;stroke-linejoin:round"></path><path d="M120.09,277.25S104,291.83,102.15,306.41s9,19.81,20.18,17.94,16.82-30.28,13.46-43.36S120.09,277.25,120.09,277.25Z" style="fill:#FE504F;stroke:#263238;stroke-linecap:round;stroke-linejoin:round"></path><path d="M123.08,358s-17.94.75-18.69,9.34,7.85,10.47,16.45,3S130.56,358.36,123.08,358Z" style="fill:#FE504F;stroke:#263238;stroke-linecap:round;stroke-linejoin:round"></path><path d="M78.6,375.93s-1.87,9-8.6,12.34-18.69-3.74-12.33-14.58S75.24,371.45,78.6,375.93Z" style="fill:#FE504F;stroke:#263238;stroke-linecap:round;stroke-linejoin:round"></path><path d="M62.9,347.9s-3.36-7.48-16.45-2.62-18.31,12.34-10.09,15S62.9,347.9,62.9,347.9Z" style="fill:#FE504F;stroke:#263238;stroke-linecap:round;stroke-linejoin:round"></path><path d="M100.28,258.19s2.24,5.23,6.73,4.11,5.6-7.85,12.71-6,13.08,10.09,13.08,6.35-9-13.45-19.06-13.45S100.65,253.33,100.28,258.19Z" style="fill:#FE504F;stroke:#263238;stroke-linecap:round;stroke-linejoin:round"></path><path d="M81.79,314.65s7.82,22.9,9.49,42.44,0,50.83,0,50.83" style="fill:none;stroke:#263238;stroke-linecap:round;stroke-linejoin:round"></path><path d="M109.16,322.47s-8.94,26.25-11.17,43-2.8,42.45-2.8,42.45" style="fill:none;stroke:#263238;stroke-linecap:round;stroke-linejoin:round"></path><path d="M104.69,369.38s-3.91,1.12-6.15,39.1" style="fill:none;stroke:#263238;stroke-linecap:round;stroke-linejoin:round"></path><path d="M78.6,375.93s3.75-3.2,6,4.06,1.12,27.37,1.12,27.37" style="fill:none;stroke:#263238;stroke-linecap:round;stroke-linejoin:round"></path><path d="M88.26,372.33c2.93,16.38.23,34.47.23,34.47" style="fill:none;stroke:#263238;stroke-linecap:round;stroke-linejoin:round"></path><path d="M62.9,347.9s16.1-3.09,22.8,14.78a49.69,49.69,0,0,1,1.68,5.47" style="fill:none;stroke:#263238;stroke-linecap:round;stroke-linejoin:round"></path><path d="M130.07,330.58s3.37-7.47,16.45-2.61,18.32,12.33,10.09,14.95S130.07,330.58,130.07,330.58Z" style="fill:#FE504F;stroke:#263238;stroke-linecap:round;stroke-linejoin:round"></path><path d="M115.76,333.86c-3.23,2.21-6.34,5.78-8.48,11.51-6.71,17.87-5.94,62-5.94,62" style="fill:none;stroke:#263238;stroke-linecap:round;stroke-linejoin:round"></path><path d="M130.07,330.58a20.76,20.76,0,0,0-11.14,1.52" style="fill:none;stroke:#263238;stroke-linecap:round;stroke-linejoin:round"></path><path d="M73.43,319.3a53.05,53.05,0,0,1,9.48,17.13c8.93,25.69,12.28,58.64,10.61,70.93" style="fill:none;stroke:#263238;stroke-linecap:round;stroke-linejoin:round"></path><path d="M55.8,307.9s7.79,1.22,15.68,9.27" style="fill:none;stroke:#263238;stroke-linecap:round;stroke-linejoin:round"></path><path d="M96.12,343.35c-.54,32.42-.93,64.57-.93,64.57" style="fill:none;stroke:#263238;stroke-linecap:round;stroke-linejoin:round"></path><path d="M100.28,258.19s-1.74-1.63-2.85,27.41c-.44,11.29-.87,32.27-1.24,53.71" style="fill:none;stroke:#263238;stroke-linecap:round;stroke-linejoin:round"></path><path d="M111.29,464.89H78.54a6.82,6.82,0,0,1-6.79-6.16l-5-51.93h56.41l-5,51.93A6.82,6.82,0,0,1,111.29,464.89Z" style="fill:#263238;stroke:#263238;stroke-linecap:round;stroke-linejoin:round"></path></g><g id="freepik--tab-3--inject-16"><path d="M345.75,325.13h84.72a6,6,0,0,1,6,6V402a5.81,5.81,0,0,1-5.81,5.81H345.52a5.81,5.81,0,0,1-5.81-5.81V331.17A6,6,0,0,1,345.75,325.13Z" style="fill:#263238;stroke:#263238;stroke-miterlimit:10"></path><path d="M343.28,322.3H428a6,6,0,0,1,6,6v70.81a5.81,5.81,0,0,1-5.81,5.81H343.05a5.81,5.81,0,0,1-5.81-5.81V328.34A6,6,0,0,1,343.28,322.3Z" style="fill:#fff;stroke:#263238;stroke-miterlimit:10"></path><path d="M343.28,322.3H428a6,6,0,0,1,6,6v10.57a0,0,0,0,1,0,0H337.24a0,0,0,0,1,0,0V328.34A6,6,0,0,1,343.28,322.3Z" style="fill:#fff;stroke:#263238;stroke-miterlimit:10"></path><line x1="343.38" y1="347.36" x2="361.53" y2="347.36" style="fill:none;stroke:#263238;stroke-miterlimit:10"></line><line x1="343.38" y1="353.72" x2="361.53" y2="353.72" style="fill:none;stroke:#263238;stroke-miterlimit:10"></line><line x1="343.38" y1="360.08" x2="361.53" y2="360.08" style="fill:none;stroke:#263238;stroke-miterlimit:10"></line><line x1="343.38" y1="366.43" x2="361.53" y2="366.43" style="fill:none;stroke:#263238;stroke-miterlimit:10"></line><line x1="343.38" y1="372.79" x2="361.53" y2="372.79" style="fill:none;stroke:#263238;stroke-miterlimit:10"></line><line x1="343.38" y1="379.15" x2="361.53" y2="379.15" style="fill:none;stroke:#263238;stroke-miterlimit:10"></line><line x1="343.38" y1="385.51" x2="361.53" y2="385.51" style="fill:none;stroke:#263238;stroke-miterlimit:10"></line><line x1="343.38" y1="391.87" x2="361.53" y2="391.87" style="fill:none;stroke:#263238;stroke-miterlimit:10"></line><line x1="416.84" y1="347.36" x2="425.69" y2="347.36" style="fill:none;stroke:#263238;stroke-miterlimit:10"></line><line x1="416.84" y1="353.72" x2="425.69" y2="353.72" style="fill:none;stroke:#263238;stroke-miterlimit:10"></line><line x1="416.84" y1="360.08" x2="425.69" y2="360.08" style="fill:none;stroke:#263238;stroke-miterlimit:10"></line><line x1="416.84" y1="366.43" x2="425.69" y2="366.43" style="fill:none;stroke:#263238;stroke-miterlimit:10"></line><line x1="416.84" y1="372.79" x2="425.69" y2="372.79" style="fill:none;stroke:#263238;stroke-miterlimit:10"></line><line x1="416.84" y1="379.15" x2="425.69" y2="379.15" style="fill:none;stroke:#263238;stroke-miterlimit:10"></line><line x1="416.84" y1="385.51" x2="425.69" y2="385.51" style="fill:none;stroke:#263238;stroke-miterlimit:10"></line><line x1="416.84" y1="391.87" x2="425.69" y2="391.87" style="fill:none;stroke:#263238;stroke-miterlimit:10"></line><line x1="365.51" y1="347.36" x2="413.3" y2="347.36" style="fill:none;stroke:#263238;stroke-miterlimit:10;stroke-width:2px"></line><line x1="365.51" y1="353.72" x2="392" y2="353.72" style="fill:none;stroke:#263238;stroke-miterlimit:10;stroke-width:2px"></line><line x1="365.51" y1="360.08" x2="399.16" y2="360.08" style="fill:none;stroke:#263238;stroke-miterlimit:10;stroke-width:2px"></line><line x1="365.51" y1="366.43" x2="399.95" y2="366.43" style="fill:none;stroke:#263238;stroke-miterlimit:10;stroke-width:2px"></line><line x1="365.51" y1="372.79" x2="407.51" y2="372.79" style="fill:none;stroke:#263238;stroke-miterlimit:10;stroke-width:2px"></line><line x1="365.51" y1="379.15" x2="376.09" y2="379.15" style="fill:none;stroke:#263238;stroke-miterlimit:10;stroke-width:2px"></line><line x1="365.51" y1="385.51" x2="387.23" y2="385.51" style="fill:none;stroke:#263238;stroke-miterlimit:10;stroke-width:2px"></line><line x1="365.51" y1="391.87" x2="413.3" y2="391.87" style="fill:none;stroke:#263238;stroke-miterlimit:10;stroke-width:2px"></line></g><g id="freepik--tab-2--inject-16"><path d="M314,165.25H462.22a6,6,0,0,1,6,6V282.93a5.81,5.81,0,0,1-5.81,5.81H313.77a5.81,5.81,0,0,1-5.81-5.81V171.29A6,6,0,0,1,314,165.25Z" style="fill:#263238;stroke:#263238;stroke-miterlimit:10"></path><path d="M311.52,162.43H459.75a6,6,0,0,1,6,6V280.1a5.81,5.81,0,0,1-5.81,5.81H311.3a5.81,5.81,0,0,1-5.81-5.81V168.46A6,6,0,0,1,311.52,162.43Z" style="fill:#fff;stroke:#263238;stroke-miterlimit:10"></path><path d="M311.52,162.43H459.75a6,6,0,0,1,6,6V179a0,0,0,0,1,0,0H305.49a0,0,0,0,1,0,0V168.46A6,6,0,0,1,311.52,162.43Z" style="fill:#fff;stroke:#263238;stroke-miterlimit:10"></path><rect x="315.31" y="187.72" width="29.84" height="27.04" style="fill:#fff;stroke:#263238;stroke-miterlimit:10"></rect><rect x="315.31" y="219.54" width="29.84" height="27.04" style="fill:#fff;stroke:#263238;stroke-miterlimit:10"></rect><rect x="352.94" y="187.72" width="29.84" height="27.04" style="fill:#fff;stroke:#263238;stroke-miterlimit:10"></rect><rect x="428.63" y="187.72" width="29.84" height="27.04" style="fill:#fff;stroke:#263238;stroke-miterlimit:10"></rect><rect x="390.57" y="187.72" width="29.84" height="27.04" style="fill:#fff;stroke:#263238;stroke-miterlimit:10"></rect><rect x="390.57" y="219.54" width="29.84" height="27.04" style="fill:#fff;stroke:#263238;stroke-miterlimit:10"></rect><rect x="390.57" y="251.35" width="29.84" height="27.04" style="fill:#fff;stroke:#263238;stroke-miterlimit:10"></rect></g><g id="freepik--tab-1--inject-16"><path d="M345.75,48.75h84.72a6,6,0,0,1,6,6v70.81a5.81,5.81,0,0,1-5.81,5.81H345.52a5.81,5.81,0,0,1-5.81-5.81V54.79A6,6,0,0,1,345.75,48.75Z" style="fill:#263238;stroke:#263238;stroke-miterlimit:10"></path><path d="M343.28,45.93H428a6,6,0,0,1,6,6v70.81a5.81,5.81,0,0,1-5.81,5.81H343.05a5.81,5.81,0,0,1-5.81-5.81V52A6,6,0,0,1,343.28,45.93Z" style="fill:#fff;stroke:#263238;stroke-miterlimit:10"></path><path d="M343.28,45.93H428a6,6,0,0,1,6,6V62.53a0,0,0,0,1,0,0H337.24a0,0,0,0,1,0,0V52A6,6,0,0,1,343.28,45.93Z" style="fill:#fff;stroke:#263238;stroke-miterlimit:10"></path><line x1="342.89" y1="72.07" x2="361.04" y2="72.07" style="fill:none;stroke:#263238;stroke-miterlimit:10"></line><line x1="342.89" y1="78.43" x2="361.04" y2="78.43" style="fill:none;stroke:#263238;stroke-miterlimit:10"></line><line x1="342.89" y1="84.79" x2="361.04" y2="84.79" style="fill:none;stroke:#263238;stroke-miterlimit:10"></line><line x1="342.89" y1="91.14" x2="361.04" y2="91.14" style="fill:none;stroke:#263238;stroke-miterlimit:10"></line><line x1="342.89" y1="97.5" x2="361.04" y2="97.5" style="fill:none;stroke:#263238;stroke-miterlimit:10"></line><line x1="342.89" y1="103.86" x2="361.04" y2="103.86" style="fill:none;stroke:#263238;stroke-miterlimit:10"></line><line x1="342.89" y1="110.22" x2="361.04" y2="110.22" style="fill:none;stroke:#263238;stroke-miterlimit:10"></line><line x1="342.89" y1="116.58" x2="361.04" y2="116.58" style="fill:none;stroke:#263238;stroke-miterlimit:10"></line><line x1="416.35" y1="72.07" x2="425.2" y2="72.07" style="fill:none;stroke:#263238;stroke-miterlimit:10"></line><line x1="416.35" y1="78.43" x2="425.2" y2="78.43" style="fill:none;stroke:#263238;stroke-miterlimit:10"></line><line x1="416.35" y1="84.79" x2="425.2" y2="84.79" style="fill:none;stroke:#263238;stroke-miterlimit:10"></line><line x1="416.35" y1="91.14" x2="425.2" y2="91.14" style="fill:none;stroke:#263238;stroke-miterlimit:10"></line><line x1="416.35" y1="97.5" x2="425.2" y2="97.5" style="fill:none;stroke:#263238;stroke-miterlimit:10"></line><line x1="416.35" y1="103.86" x2="425.2" y2="103.86" style="fill:none;stroke:#263238;stroke-miterlimit:10"></line><line x1="416.35" y1="110.22" x2="425.2" y2="110.22" style="fill:none;stroke:#263238;stroke-miterlimit:10"></line><line x1="416.35" y1="116.58" x2="425.2" y2="116.58" style="fill:none;stroke:#263238;stroke-miterlimit:10"></line><line x1="365.02" y1="72.07" x2="412.81" y2="72.07" style="fill:none;stroke:#263238;stroke-miterlimit:10"></line><line x1="365.02" y1="78.43" x2="412.81" y2="78.43" style="fill:none;stroke:#263238;stroke-miterlimit:10"></line><line x1="365.02" y1="84.79" x2="412.81" y2="84.79" style="fill:none;stroke:#263238;stroke-miterlimit:10"></line><line x1="365.02" y1="91.14" x2="412.81" y2="91.14" style="fill:none;stroke:#263238;stroke-miterlimit:10"></line><line x1="365.02" y1="97.5" x2="412.81" y2="97.5" style="fill:none;stroke:#263238;stroke-miterlimit:10"></line><line x1="365.02" y1="103.86" x2="412.81" y2="103.86" style="fill:none;stroke:#263238;stroke-miterlimit:10"></line><line x1="365.02" y1="110.22" x2="412.81" y2="110.22" style="fill:none;stroke:#263238;stroke-miterlimit:10"></line><line x1="365.02" y1="116.58" x2="412.81" y2="116.58" style="fill:none;stroke:#263238;stroke-miterlimit:10"></line></g><g id="freepik--text-3--inject-16"><path d="M366.46,335.37v-8.1h2.38a2.3,2.3,0,0,1,1.19.27,1.63,1.63,0,0,1,.67.79,3.28,3.28,0,0,1,.21,1.24,2.62,2.62,0,0,1-.27,1.28,1.59,1.59,0,0,1-.75.7,2.71,2.71,0,0,1-1.15.22h-.8v3.6Zm1.48-4.64h.56a1.37,1.37,0,0,0,.63-.11.64.64,0,0,0,.31-.37,2.17,2.17,0,0,0,.08-.69,3.41,3.41,0,0,0-.06-.71.64.64,0,0,0-.28-.41,1.43,1.43,0,0,0-.68-.13h-.56Z" style="fill:#263238"></path><path d="M371.69,335.37v-8.1h1.94a4.3,4.3,0,0,1,1.39.2,1.6,1.6,0,0,1,.86.66,2.38,2.38,0,0,1,.29,1.28,3.91,3.91,0,0,1-.09.88,1.72,1.72,0,0,1-.3.67,1.35,1.35,0,0,1-.6.42l1.13,4h-1.48l-1-3.71h-.68v3.71Zm1.48-4.64h.46a1.64,1.64,0,0,0,.69-.12.71.71,0,0,0,.36-.4,1.79,1.79,0,0,0,.11-.71,1.53,1.53,0,0,0-.22-.91,1,1,0,0,0-.86-.31h-.54Z" style="fill:#263238"></path><path d="M379.46,335.48a2.5,2.5,0,0,1-1.37-.32,1.77,1.77,0,0,1-.73-.92,4.28,4.28,0,0,1-.22-1.42v-3a4.16,4.16,0,0,1,.22-1.4,1.76,1.76,0,0,1,.73-.9,2.7,2.7,0,0,1,1.37-.31,2.73,2.73,0,0,1,1.39.31,1.76,1.76,0,0,1,.73.9,3.92,3.92,0,0,1,.22,1.4v3a4,4,0,0,1-.22,1.41,1.81,1.81,0,0,1-.73.92A2.53,2.53,0,0,1,379.46,335.48Zm0-1.09a.79.79,0,0,0,.55-.16.75.75,0,0,0,.23-.44,2.87,2.87,0,0,0,.06-.61v-3.73a2.87,2.87,0,0,0-.06-.61.72.72,0,0,0-.23-.42.84.84,0,0,0-.55-.16.82.82,0,0,0-.53.16.73.73,0,0,0-.24.42,2.87,2.87,0,0,0-.06.61v3.73a2.87,2.87,0,0,0,.06.61.75.75,0,0,0,.23.44A.77.77,0,0,0,379.46,334.39Z" style="fill:#263238"></path><path d="M384.92,335.48a2.12,2.12,0,0,1-1.27-.34,1.89,1.89,0,0,1-.67-1,4.68,4.68,0,0,1-.21-1.48V330a5.09,5.09,0,0,1,.2-1.5,1.75,1.75,0,0,1,.71-1,2.53,2.53,0,0,1,1.39-.34,2.7,2.7,0,0,1,1.32.28,1.6,1.6,0,0,1,.71.81,3.41,3.41,0,0,1,.21,1.27V330H385.9v-.46a3.33,3.33,0,0,0,0-.67.77.77,0,0,0-.22-.42.79.79,0,0,0-.54-.15.76.76,0,0,0-.56.19.92.92,0,0,0-.22.5,4.83,4.83,0,0,0-.05.68V333a3.76,3.76,0,0,0,.07.73.93.93,0,0,0,.26.48.81.81,0,0,0,.54.16.76.76,0,0,0,.55-.18.93.93,0,0,0,.27-.5A3.33,3.33,0,0,0,386,333v-.76h-.87v-.93h2.2v4.11h-1l-.11-.8a1.45,1.45,0,0,1-.48.66A1.41,1.41,0,0,1,384.92,335.48Z" style="fill:#263238"></path><path d="M388.48,335.37v-8.1h1.94a4.3,4.3,0,0,1,1.39.2,1.6,1.6,0,0,1,.86.66,2.38,2.38,0,0,1,.29,1.28,3.91,3.91,0,0,1-.09.88,1.72,1.72,0,0,1-.3.67,1.35,1.35,0,0,1-.6.42l1.13,4h-1.48l-1-3.71H390v3.71Zm1.48-4.64h.46a1.64,1.64,0,0,0,.69-.12.71.71,0,0,0,.36-.4,1.79,1.79,0,0,0,.11-.71,1.53,1.53,0,0,0-.22-.91,1,1,0,0,0-.86-.31H390Z" style="fill:#263238"></path><path d="M394.07,335.37v-8.1h3.4v1h-1.92v2.33h1.51v1h-1.51v2.68h1.94v1Z" style="fill:#263238"></path><path d="M400.39,335.48a2.42,2.42,0,0,1-1.22-.28,1.85,1.85,0,0,1-.74-.84,3.66,3.66,0,0,1-.28-1.35l1.27-.25a4.58,4.58,0,0,0,.12.83,1.19,1.19,0,0,0,.29.56.69.69,0,0,0,.51.19.58.58,0,0,0,.51-.21.94.94,0,0,0,.15-.55,1.49,1.49,0,0,0-.24-.87,4,4,0,0,0-.64-.68l-1-.9a3.1,3.1,0,0,1-.68-.82,2.28,2.28,0,0,1-.26-1.13,1.94,1.94,0,0,1,.56-1.48,2.54,2.54,0,0,1,2.48-.34,1.47,1.47,0,0,1,.61.48,2.2,2.2,0,0,1,.33.71,3.69,3.69,0,0,1,.14.83l-1.26.22a4.38,4.38,0,0,0-.08-.68,1,1,0,0,0-.23-.47.66.66,0,0,0-.49-.17.62.62,0,0,0-.5.22.79.79,0,0,0-.18.53,1.27,1.27,0,0,0,.17.68,2.66,2.66,0,0,0,.49.54l1,.89a4.09,4.09,0,0,1,.86,1,2.48,2.48,0,0,1,.35,1.36,2,2,0,0,1-.25,1,1.86,1.86,0,0,1-.71.71A2.14,2.14,0,0,1,400.39,335.48Z" style="fill:#263238"></path><path d="M405.25,335.48a2.42,2.42,0,0,1-1.22-.28,1.85,1.85,0,0,1-.74-.84A3.66,3.66,0,0,1,403,333l1.27-.25a3.84,3.84,0,0,0,.12.83,1.19,1.19,0,0,0,.29.56.69.69,0,0,0,.51.19.58.58,0,0,0,.51-.21.94.94,0,0,0,.15-.55,1.49,1.49,0,0,0-.24-.87A4,4,0,0,0,405,332l-1-.9a3.1,3.1,0,0,1-.68-.82,2.28,2.28,0,0,1-.26-1.13,1.94,1.94,0,0,1,.56-1.48,2.54,2.54,0,0,1,2.48-.34,1.47,1.47,0,0,1,.61.48,2.2,2.2,0,0,1,.33.71,3.69,3.69,0,0,1,.14.83l-1.26.22a4.38,4.38,0,0,0-.08-.68,1,1,0,0,0-.23-.47.66.66,0,0,0-.49-.17.62.62,0,0,0-.5.22.79.79,0,0,0-.18.53,1.27,1.27,0,0,0,.17.68,2.66,2.66,0,0,0,.49.54l1,.89a4.09,4.09,0,0,1,.86,1,2.48,2.48,0,0,1,.35,1.36,2,2,0,0,1-.25,1,1.86,1.86,0,0,1-.71.71A2.14,2.14,0,0,1,405.25,335.48Z" style="fill:#263238"></path></g><g id="freepik--text-2--inject-16"><path d="M348.22,175.07V167h2.38a2.33,2.33,0,0,1,1.19.27,1.68,1.68,0,0,1,.67.79,3.28,3.28,0,0,1,.21,1.24,2.62,2.62,0,0,1-.27,1.28,1.59,1.59,0,0,1-.75.7,2.74,2.74,0,0,1-1.15.22h-.8v3.6Zm1.48-4.64h.56a1.37,1.37,0,0,0,.63-.11.64.64,0,0,0,.31-.37,2.51,2.51,0,0,0,.08-.69,3.41,3.41,0,0,0-.06-.71.65.65,0,0,0-.28-.41,1.46,1.46,0,0,0-.68-.13h-.56Z" style="fill:#263238"></path><path d="M353.45,175.07V167h1.94a4.3,4.3,0,0,1,1.39.2,1.64,1.64,0,0,1,.86.66,2.48,2.48,0,0,1,.29,1.28,3.91,3.91,0,0,1-.09.88,1.72,1.72,0,0,1-.3.67,1.41,1.41,0,0,1-.6.42l1.13,4h-1.48l-1-3.71h-.68v3.71Zm1.48-4.64h.46a1.64,1.64,0,0,0,.69-.12.71.71,0,0,0,.36-.4,2,2,0,0,0,.11-.71,1.53,1.53,0,0,0-.22-.91,1,1,0,0,0-.86-.31h-.54Z" style="fill:#263238"></path><path d="M361.22,175.18a2.5,2.5,0,0,1-1.37-.32,1.77,1.77,0,0,1-.73-.92,4.28,4.28,0,0,1-.22-1.42v-3a4.16,4.16,0,0,1,.22-1.4,1.76,1.76,0,0,1,.73-.9,2.7,2.7,0,0,1,1.37-.31,2.73,2.73,0,0,1,1.39.31,1.81,1.81,0,0,1,.73.9,3.92,3.92,0,0,1,.22,1.4v3a4,4,0,0,1-.22,1.41,1.86,1.86,0,0,1-.73.92A2.62,2.62,0,0,1,361.22,175.18Zm0-1.09a.79.79,0,0,0,.55-.16.81.81,0,0,0,.23-.44,2.87,2.87,0,0,0,.06-.61v-3.73a2.87,2.87,0,0,0-.06-.61.78.78,0,0,0-.23-.42.84.84,0,0,0-.55-.16.82.82,0,0,0-.53.16.73.73,0,0,0-.24.42,2.87,2.87,0,0,0-.06.61v3.73a2.87,2.87,0,0,0,.06.61.7.7,0,0,0,.23.44A.77.77,0,0,0,361.22,174.09Z" style="fill:#263238"></path><path d="M364.1,175.27v-1a2.6,2.6,0,0,0,.53,0,.63.63,0,0,0,.33-.14.61.61,0,0,0,.16-.31,2,2,0,0,0,.05-.53V167h1.47v6.3a3.3,3.3,0,0,1-.16,1.13,1.17,1.17,0,0,1-.55.66,2.45,2.45,0,0,1-1.12.21Z" style="fill:#263238"></path><path d="M367.87,175.07V167h3.4v1h-1.92v2.33h1.51v1h-1.51v2.68h1.94v1Z" style="fill:#263238"></path><path d="M374.33,175.18a2.34,2.34,0,0,1-1.39-.35,1.79,1.79,0,0,1-.71-1,4.54,4.54,0,0,1-.2-1.4v-2.89a4.77,4.77,0,0,1,.2-1.44,1.73,1.73,0,0,1,.71-.94,2.51,2.51,0,0,1,1.39-.33,2.58,2.58,0,0,1,1.32.29,1.58,1.58,0,0,1,.67.81,3.6,3.6,0,0,1,.2,1.23v.68H375.1v-.7a6,6,0,0,0,0-.62.85.85,0,0,0-.19-.44.94.94,0,0,0-1.09,0,.87.87,0,0,0-.23.47,4.43,4.43,0,0,0-.05.66v3.52a3,3,0,0,0,.07.73.75.75,0,0,0,.26.43.76.76,0,0,0,.5.14.68.68,0,0,0,.53-.17.92.92,0,0,0,.19-.47,4.28,4.28,0,0,0,0-.65v-.73h1.42v.65a3.87,3.87,0,0,1-.19,1.28,1.7,1.7,0,0,1-.66.87A2.42,2.42,0,0,1,374.33,175.18Z" style="fill:#263238"></path><path d="M378.36,175.07v-7h-1.29V167h4v1.09h-1.27v7Z" style="fill:#263238"></path><path d="M384.26,175.07l.14-8.1h1.53l1.15,5.61,1.2-5.61h1.48l.15,8.1h-1.1l-.12-5.63-1.15,5.63h-.89l-1.17-5.65-.11,5.65Z" style="fill:#263238"></path><path d="M390.7,175.07l1.62-8.1h1.58l1.62,8.1h-1.37l-.32-1.87h-1.41l-.33,1.87Zm1.87-2.81h1.1l-.55-3.4Z" style="fill:#263238"></path><path d="M396.29,175.07V167h1l2,4.62V167h1.22v8.1h-1l-2-4.84v4.84Z" style="fill:#263238"></path><path d="M401.33,175.07,403,167h1.58l1.62,8.1h-1.37l-.32-1.87h-1.41l-.33,1.87Zm1.87-2.81h1.1l-.55-3.4Z" style="fill:#263238"></path><path d="M408.9,175.18a2.12,2.12,0,0,1-1.27-.34,1.79,1.79,0,0,1-.67-1,4.68,4.68,0,0,1-.21-1.48v-2.72a5.09,5.09,0,0,1,.2-1.5,1.7,1.7,0,0,1,.71-1,2.5,2.5,0,0,1,1.39-.34,2.73,2.73,0,0,1,1.32.28,1.65,1.65,0,0,1,.71.81,3.41,3.41,0,0,1,.21,1.27v.42h-1.41v-.46a4.27,4.27,0,0,0-.05-.67.77.77,0,0,0-.22-.42.79.79,0,0,0-.54-.15.74.74,0,0,0-.56.19.92.92,0,0,0-.22.5,4.83,4.83,0,0,0-.05.68v3.39a3.12,3.12,0,0,0,.07.73.93.93,0,0,0,.26.48.81.81,0,0,0,.54.16.78.78,0,0,0,.55-.18.93.93,0,0,0,.27-.5,3.33,3.33,0,0,0,.07-.76v-.76h-.87V171h2.2v4.11h-.95l-.11-.8a1.61,1.61,0,0,1-.48.66A1.41,1.41,0,0,1,408.9,175.18Z" style="fill:#263238"></path><path d="M412.46,175.07V167h3.4v1h-1.92v2.33h1.51v1h-1.51v2.68h1.94v1Z" style="fill:#263238"></path><path d="M416.74,175.07V167h1.94a4.3,4.3,0,0,1,1.39.2,1.64,1.64,0,0,1,.86.66,2.48,2.48,0,0,1,.29,1.28,3.91,3.91,0,0,1-.09.88,1.72,1.72,0,0,1-.3.67,1.41,1.41,0,0,1-.6.42l1.13,4h-1.48l-1-3.71h-.68v3.71Zm1.48-4.64h.46a1.64,1.64,0,0,0,.69-.12.71.71,0,0,0,.36-.4,2,2,0,0,0,.11-.71,1.53,1.53,0,0,0-.22-.91,1,1,0,0,0-.86-.31h-.54Z" style="fill:#263238"></path></g><g id="freepik--text-1--inject-16"><path d="M369.31,59V52H368V50.9h4V52h-1.27v7Z" style="fill:#263238"></path><path d="M372.19,59l1.62-8.1h1.58L377,59h-1.37l-.32-1.87h-1.41L373.58,59Zm1.87-2.81h1.1l-.55-3.4Z" style="fill:#263238"></path><path d="M379.82,59.11a2.42,2.42,0,0,1-1.22-.29,1.82,1.82,0,0,1-.74-.83,3.75,3.75,0,0,1-.28-1.35l1.27-.25a4.72,4.72,0,0,0,.12.83,1.15,1.15,0,0,0,.29.55.69.69,0,0,0,.51.2.56.56,0,0,0,.51-.22.91.91,0,0,0,.15-.54,1.49,1.49,0,0,0-.24-.87,3.63,3.63,0,0,0-.64-.68l-1-.9a3.14,3.14,0,0,1-.68-.83,2.24,2.24,0,0,1-.26-1.12,1.94,1.94,0,0,1,.56-1.48,2.17,2.17,0,0,1,1.53-.52,2.37,2.37,0,0,1,.95.17,1.49,1.49,0,0,1,.61.49,2.15,2.15,0,0,1,.33.7,3.88,3.88,0,0,1,.14.84l-1.26.22a4.38,4.38,0,0,0-.08-.68.91.91,0,0,0-.23-.47.66.66,0,0,0-.49-.17.61.61,0,0,0-.5.21.84.84,0,0,0-.18.54,1.23,1.23,0,0,0,.17.67,3,3,0,0,0,.49.55l1,.89a4.24,4.24,0,0,1,.86,1,2.52,2.52,0,0,1,.35,1.37,2,2,0,0,1-.25,1,1.84,1.84,0,0,1-.71.7A2.15,2.15,0,0,1,379.82,59.11Z" style="fill:#263238"></path><path d="M382.64,59V50.9h1.48v3.56l1.6-3.56h1.41l-1.55,3.62L387.29,59h-1.47l-1.36-3.69-.34.62V59Z" style="fill:#263238"></path><path d="M390.3,59V50.9h1.48V58h2v1Z" style="fill:#263238"></path><path d="M394.51,59V50.9H396V59Z" style="fill:#263238"></path><path d="M399.26,59.11a2.42,2.42,0,0,1-1.22-.29,1.82,1.82,0,0,1-.74-.83,3.75,3.75,0,0,1-.28-1.35l1.27-.25a4.72,4.72,0,0,0,.12.83,1.15,1.15,0,0,0,.29.55.69.69,0,0,0,.51.2.56.56,0,0,0,.51-.22.91.91,0,0,0,.15-.54,1.49,1.49,0,0,0-.24-.87,3.63,3.63,0,0,0-.64-.68l-1-.9a3.14,3.14,0,0,1-.68-.83,2.24,2.24,0,0,1-.26-1.12,1.94,1.94,0,0,1,.56-1.48,2.17,2.17,0,0,1,1.53-.52,2.37,2.37,0,0,1,.95.17,1.49,1.49,0,0,1,.61.49,2.15,2.15,0,0,1,.33.7,3.88,3.88,0,0,1,.14.84l-1.26.22a4.38,4.38,0,0,0-.08-.68.91.91,0,0,0-.23-.47.66.66,0,0,0-.49-.17.61.61,0,0,0-.5.21.84.84,0,0,0-.18.54,1.23,1.23,0,0,0,.17.67,3,3,0,0,0,.49.55l1,.89a4.24,4.24,0,0,1,.86,1,2.52,2.52,0,0,1,.35,1.37,2,2,0,0,1-.25,1,1.84,1.84,0,0,1-.71.7A2.15,2.15,0,0,1,399.26,59.11Z" style="fill:#263238"></path><path d="M403,59V52h-1.29V50.9h4V52h-1.27v7Z" style="fill:#263238"></path></g><g id="freepik--Character--inject-16"><path d="M199.76,425.8s-1.87,8.4-2.8,10-7.24,13.76-8.17,16.33.47,13.53.7,14.7a4.1,4.1,0,0,0,3.27,2.8c1.86.47,4.43-1.4,8.63-6.3s5.83-8.17,6.07-12.13.93-11.67,1.4-13.3,1.16-5.37,1.16-5.37Z" style="fill:#263238;stroke:#263238;stroke-miterlimit:10"></path><path d="M305,425.8s1.87,8.4,2.8,10S315,449.6,316,452.17s-.47,13.53-.7,14.7a4.1,4.1,0,0,1-3.27,2.8c-1.86.47-4.43-1.4-8.63-6.3s-5.83-8.17-6.07-12.13-.93-11.67-1.4-13.3-1.16-5.37-1.16-5.37Z" style="fill:#263238;stroke:#263238;stroke-miterlimit:10"></path><polygon points="292.85 279.48 291.24 262.23 252.92 258.31 214.6 262.23 212.98 279.48 195.38 436.83 201.39 441.93 211.11 439.97 252.92 303 294.44 440.73 305.41 443.86 310.17 438.38 292.85 279.48" style="fill:#263238;stroke:#263238;stroke-miterlimit:10"></polygon><polygon points="294.86 240.28 294.83 158.66 266.76 149.71 254.96 150.93 243.16 149.71 215.09 158.66 214.71 241.34 207.17 271.6 253.13 292.41 254.96 288.75 256.79 292.41 302.75 271.6 294.86 240.28" style="fill:#FE504F;stroke:#263238;stroke-miterlimit:10"></polygon><path d="M230.22,179.84a95.21,95.21,0,0,0,3.43,8.95c5.38,12.57,18.46,28.47,18.46,28.47" style="fill:none;stroke:#263238;stroke-miterlimit:10"></path><polyline points="236.72 152.88 231.08 162.63 236.47 164.68 229.54 175.45" style="fill:none;stroke:#263238;stroke-miterlimit:10"></polyline><path d="M261.87,213.07c-2,2.59-3.29,4.19-3.29,4.19" style="fill:none;stroke:#263238;stroke-miterlimit:10"></path><path d="M274,152.88l5.64,9.75-5.39,2.05,6.93,10.77s1.28.77-4.1,13.34c-2.92,6.81-8.1,14.6-12.24,20.31" style="fill:none;stroke:#263238;stroke-miterlimit:10"></path><line x1="253.58" y1="277.88" x2="254.08" y2="281.77" style="fill:none;stroke:#263238;stroke-miterlimit:10"></line><polyline points="252.37 221.36 247.75 231.88 253.16 274.58" style="fill:none;stroke:#263238;stroke-miterlimit:10"></polyline><polygon points="242.16 152.77 246.56 182.26 254.79 211.17 264.56 180.34 270.11 153.54 242.16 152.77" style="fill:#fff;stroke:#263238;stroke-miterlimit:10"></polygon><polygon points="255.75 160.81 249.24 168.85 253.64 177.85 249.71 193.34 254.79 211.17 260.97 191.66 257.86 177.47 262.45 169.62 255.75 160.81" style="fill:#263238;stroke:#263238;stroke-miterlimit:10"></polygon><polygon points="256.13 165.41 245.41 176.71 242.16 152.77 256.13 165.41" style="fill:#fff;stroke:#263238;stroke-miterlimit:10"></polygon><polygon points="256.13 165.41 265.7 178.05 270.11 153.54 268.58 152.39 256.13 165.41" style="fill:#fff;stroke:#263238;stroke-miterlimit:10"></polygon><polygon points="242.16 146.84 242.16 152.77 256.13 165.41 268.58 152.39 268.58 146.64 242.16 146.84" style="fill:#263238;stroke:#263238;stroke-miterlimit:10"></polygon><path d="M240.43,101.65s-5.93,6.7-5.36,10.34,2.87,27.76,3.83,29.67S251,156.41,253.45,156.6s4.6.57,5.55-.38,12.83-13,12.64-15.9,1-25.08.77-31-6.32-7.08-6.32-7.08-2.3-4.21-9.38-4.79S240.43,101.65,240.43,101.65Z" style="fill:#fff;stroke:#263238;stroke-miterlimit:10"></path><path d="M266.09,102.22s-2.3-4.21-9.38-4.79-16.28,4.22-16.28,4.22-5.93,6.7-5.36,10.34c.26,1.61.85,7.29,1.52,13.26,3.94-1.72,22.32-10,26.24-16.33,0,0,.77,10.53,4.22,12.64a24.61,24.61,0,0,1,5,4.33c.24-6.63.47-13.63.38-16.59C272.22,103.37,266.09,102.22,266.09,102.22Z" style="fill:#263238;stroke:#263238;stroke-miterlimit:10"></path><path d="M251.54,137.45s1.72,2.3,4,2.11a7.2,7.2,0,0,0,4-1.92" style="fill:none;stroke:#263238;stroke-miterlimit:10"></path><line x1="251.92" y1="144.73" x2="259.2" y2="144.73" style="fill:none;stroke:#263238;stroke-miterlimit:10"></line><path d="M220.58,147.57l6.66-17.77s11.8-12.18,12.41-13,1.84-.84,5.67.15,6.59,1.61,6.36,2.38-1.53,1.15-2.45,1.22-6.28,1.15-6.28,1.15-3,7.66-2.91,8.51.3,6,.3,6a50.66,50.66,0,0,1,8.43-2.83c2.91-.46,4.67,1.15,4.37,1.45s-3.91,1.54-6.13,2.68-4.06,2.76-7.66,4.75a31.8,31.8,0,0,1-5.44,2.46c-.23.15-4.52,8.5-4.52,8.5Z" style="fill:#fff;stroke:#263238;stroke-miterlimit:10"></path><path d="M236.74,120.3s3.53-2.3,4.37-2.3,5.9.84,6.82.77,1.84.07,1.22,1-1.37.69-3.14,1.15-9.34,1-9.65,1a29.13,29.13,0,0,0-2.83,1Z" style="fill:#fff;stroke:#263238;stroke-miterlimit:10"></path><path d="M231.46,124.28s3.29-2.83,4.44-3.52,7.51-.31,8.81-.77,2.91-.92,2.91.08-1.54,2.4-3.6,2.53a35.67,35.67,0,0,0-4.52.38C239.2,123.13,231.46,124.28,231.46,124.28Z" style="fill:#fff;stroke:#263238;stroke-miterlimit:10"></path><path d="M226.4,142s.84-10.27.84-12.18.62-4,1.15-4.45S240.65,122,240.65,122s1.15.31.15,1.61-3.6,2.3-5.74,2.91a24.22,24.22,0,0,0-3.68,1.38s1.53,7.43,1.76,9.5.46,4.06-.3,5.13" style="fill:#fff;stroke:#263238;stroke-miterlimit:10"></path><polygon points="220.68 145.45 232.05 151.76 228.13 158.33 217.53 151.39 220.68 145.45" style="fill:#fff;stroke:#263238;stroke-miterlimit:10"></polygon><path d="M217.65,149.49l12.88,9.1L210.2,204.06s-2.4,6.44-11.62,4.42c-7.67-1.68-9.35-7.32-9.85-10.36s-.38-5.93.75-7.83S217.65,149.49,217.65,149.49Z" style="fill:#FE504F;stroke:#263238;stroke-miterlimit:10"></path><path d="M289.1,147.57l-6.66-17.77s-11.8-12.18-12.41-13-1.84-.84-5.67.15-6.59,1.61-6.36,2.38,1.53,1.15,2.45,1.22,6.28,1.15,6.28,1.15,3,7.66,2.91,8.51-.3,6-.3,6a50.66,50.66,0,0,0-8.43-2.83c-2.91-.46-4.67,1.15-4.37,1.45s3.91,1.54,6.13,2.68,4.06,2.76,7.66,4.75a31.8,31.8,0,0,0,5.44,2.46c.23.15,4.52,8.5,4.52,8.5Z" style="fill:#fff;stroke:#263238;stroke-miterlimit:10"></path><path d="M272.94,120.3s-3.53-2.3-4.37-2.3-5.9.84-6.82.77-1.84.07-1.22,1,1.38.69,3.14,1.15,9.34,1,9.65,1a29.13,29.13,0,0,1,2.83,1Z" style="fill:#fff;stroke:#263238;stroke-miterlimit:10"></path><path d="M278.22,124.28s-3.29-2.83-4.44-3.52-7.51-.31-8.81-.77-2.91-.92-2.91.08,1.54,2.4,3.6,2.53a35.67,35.67,0,0,1,4.52.38C270.49,123.13,278.22,124.28,278.22,124.28Z" style="fill:#fff;stroke:#263238;stroke-miterlimit:10"></path><path d="M283.28,142s-.84-10.27-.84-12.18-.62-4-1.15-4.45S269,122,269,122s-1.15.31-.15,1.61,3.6,2.3,5.74,2.91a24.22,24.22,0,0,1,3.68,1.38s-1.53,7.43-1.76,9.5-.46,4.06.3,5.13" style="fill:#fff;stroke:#263238;stroke-miterlimit:10"></path><polygon points="289.36 145.45 278 151.76 281.91 158.33 292.52 151.39 289.36 145.45" style="fill:#fff;stroke:#263238;stroke-miterlimit:10"></polygon><path d="M292.39,149.49l-12.88,9.1,20.34,45.47s2.4,6.44,11.62,4.42c7.67-1.68,9.34-7.32,9.85-10.36s.38-5.93-.76-7.83S292.39,149.49,292.39,149.49Z" style="fill:#FE504F;stroke:#263238;stroke-miterlimit:10"></path><path d="M247.72,121.77l4.7-1.24.84-1.73a1.45,1.45,0,0,1,1.31-.82h0a1.44,1.44,0,0,1,1.26.75l1,1.8,4.69,1.11-3.39,5.6-3.45-2.8-2.48,2.21Z" style="fill:#fff;stroke:#263238;stroke-miterlimit:10"></path><path d="M256,120.72a1.37,1.37,0,1,0-1.37,1.37A1.37,1.37,0,0,0,256,120.72Z" style="fill:#fff;stroke:#263238;stroke-miterlimit:10"></path><ellipse cx="247" cy="128.58" rx="7.41" ry="6.81" transform="translate(-16.54 218.52) rotate(-46.34)" style="fill:#fff;stroke:#263238;stroke-miterlimit:10"></ellipse><path d="M252.55,130.13a6.82,6.82,0,1,0-6.82,6.82A6.81,6.81,0,0,0,252.55,130.13Z" style="fill:#fff;stroke:#263238;stroke-miterlimit:10"></path><path d="M251.45,130.13a5.72,5.72,0,1,0-5.72,5.72A5.72,5.72,0,0,0,251.45,130.13Z" style="fill:#fff;stroke:#263238;stroke-miterlimit:10;stroke-width:0.5px"></path><path d="M257.92,133.29c-2.82-3-2.91-7.48-.18-10.07s7.22-2.31,10.05.66,2.91,7.47.18,10.06S260.75,136.25,257.92,133.29Z" style="fill:#fff;stroke:#263238;stroke-miterlimit:10"></path><path d="M257.31,130.13a6.82,6.82,0,1,1,6.81,6.82A6.81,6.81,0,0,1,257.31,130.13Z" style="fill:#fff;stroke:#263238;stroke-miterlimit:10"></path><path d="M258.4,130.13a5.72,5.72,0,1,1,5.72,5.72A5.72,5.72,0,0,1,258.4,130.13Z" style="fill:#fff;stroke:#263238;stroke-miterlimit:10;stroke-width:0.5px"></path></g></svg>
